<svg xmlns="http://www.w3.org/2000/svg" viewBox="0 0 1367.35 360">
  <defs>
    <style>
      .cls-1 {
        fill: #fff;
      }
    </style>
  </defs>
  <title>logo-带文字-白</title>
  <g id="图层_2" data-name="图层 2">
    <g id="图层_1-2" data-name="图层 1">
      <g id="logo-带文字-白">
        <g>
          <path class="cls-1" d="M247.51,45.12A219.09,219.09,0,0,1,363.22,89.07l29.57-34A263.92,263.92,0,0,0,249.09.11L247.51,0l-1.58.11a264,264,0,0,0-143.7,55l29.58,34A219.06,219.06,0,0,1,247.51,45.12Z"/>
          <path class="cls-1" d="M495,292.5v-45h-.5A262.68,262.68,0,0,0,422.77,82.22q-3.24-3.41-6.58-6.67l-34.08,29.62c2.72,2.6,5.39,5.26,8,8a217.79,217.79,0,0,1,59.32,134.32H405L348.65,310.1l34,29.53,42.44-47.13Z"/>
          <g>
            <path class="cls-1" d="M78.83,75.55c-2.22,2.18-4.42,4.4-6.57,6.67A262.68,262.68,0,0,0,.51,247.49H0v45H31.1L90,273.36V247.49H45.61a217.79,217.79,0,0,1,59.32-134.32q3.9-4.11,8-8Z"/>
            <polygon class="cls-1" points="328.38 315 143.88 315 117.43 285.63 75.35 306.15 75.35 306.15 123.84 360 367.75 360 328.38 315"/>
          </g>
          <path class="cls-1" d="M284.08,174.37H221.55l26.09,39.37h62.29A45.68,45.68,0,0,1,269,239.06H227.82q-1,0-2.1-.06l-.58,0c-.56,0-1.11-.07-1.67-.12l-.44,0c-.68-.08-1.35-.16-2-.26l-.51-.08-1.55-.28-.59-.12c-.64-.13-1.28-.28-1.92-.44l-.3-.08-1.62-.46-.64-.2c-.47-.15-.92-.31-1.38-.47l-.53-.19c-.58-.21-1.15-.44-1.72-.67l-.67-.3c-.38-.16-.76-.33-1.13-.51l-.72-.34c-.49-.24-1-.49-1.46-.75l-.78-.43c-.33-.18-.65-.37-1-.56l-.81-.49-.84-.53-1.26-.86-.82-.58-.86-.66-.61-.47c-.29-.24-.58-.47-.87-.72a3.88,3.88,0,0,1-.31-.26c-.6-.51-1.18-1-1.76-1.58l-.4-.39-.9-.89-.28-.3c-.63-.66-1.23-1.32-1.82-2l-.07-.09c-.3-.35-.59-.71-.88-1.07l-.22-.28c-.89-1.13-1.72-2.31-2.5-3.52a1.64,1.64,0,0,0-.14-.22c-.81-1.29-1.57-2.63-2.26-4a45.45,45.45,0,0,1-4.8-20.39,47,47,0,0,1,13.76-32.87,84.3,84.3,0,0,1,51.63-24.14,84.54,84.54,0,0,1,51,23.56l1.36,1.46,27.86-27.86-1.37-1.44A124,124,0,0,0,248.93,97l-1.42-.1-1.41.1a123.67,123.67,0,0,0-77.9,35.52,85,85,0,0,0-22.5,82.92l.05.16c.14.54.3,1.07.45,1.61l0,.11a85.45,85.45,0,0,0,2.9,8.24l0,.09c.22.5.43,1,.65,1.52l.07.15c.22.51.45,1,.68,1.52l0,0a84.69,84.69,0,0,0,4,7.61,2,2,0,0,1,.11.2l.81,1.33.13.2.85,1.35,0,0c1.23,1.88,2.53,3.72,3.9,5.49a2,2,0,0,0,.17.23l.9,1.14.25.31.9,1.1.24.28,1,1.12.07.07c1.06,1.22,2.17,2.41,3.3,3.56l.24.25,1,.94.39.38.92.87.44.41c.3.29.61.57.92.85l.43.38,1,.85.17.15q1.11.94,2.25,1.86l.31.25.94.72.56.43.91.68.62.45.89.64.67.46.88.6.7.46.89.58.8.5,1.52.93.81.47.84.49.83.46.85.46.86.45.83.43.92.46.8.39,1.11.51.8.37,1.53.67.73.3,1.06.44.79.31,1,.39.8.29,1.06.38.78.26,1.18.39.68.21c.61.19,1.22.38,1.84.55l.41.11,1.49.41.71.17,1.21.3.77.18,1.19.25.77.16c.41.09.83.16,1.24.24l.72.13,1.51.25.46.08c.65.1,1.31.19,2,.27l.56.07,1.45.17.73.07,1.29.11.79.06,1.28.08.77,0c.46,0,.92,0,1.39.06l.66,0,2,0h40.57a85.43,85.43,0,0,0,82.87-64.69V174.37Z"/>
        </g>
        <g>
          <g>
            <polygon class="cls-1" points="980 139.87 922.95 82.81 865.9 139.87 884.3 158.28 922.95 119.63 961.59 158.28 980 139.87"/>
            <polygon class="cls-1" points="1104.56 139.87 1047.51 82.81 990.47 139.87 1008.87 158.28 1047.51 119.63 1086.16 158.28 1104.56 139.87"/>
            <polygon class="cls-1" points="898.86 161.01 922.95 136.93 947.03 161.01 898.86 161.01"/>
            <polygon class="cls-1" points="1023.42 161.01 1047.51 136.93 1071.6 161.01 1023.42 161.01"/>
            <path class="cls-1" d="M871.1,196V175.19h80.16V196h-24v78.08c7.64-1.37,15.63-3.12,24-5.2v20.82q-38.53,14.58-84.32,14.58v-25c4.16,0,24.16-.55,29.14-1V196Z"/>
            <path class="cls-1" d="M1010.59,271a408.47,408.47,0,0,0-12.48-56.22h20.82A308.15,308.15,0,0,1,1034.54,271Z"/>
            <path class="cls-1" d="M1088.69,287.63v7.29q1,10.41-9.37,9.37-9.39,1-8.33-9.37V193.48l0,1.26q-1.25-24.59-28.06-23.68l.51,0H962.71v45.81q2.09,64.56-20.82,88.48v25q55.15-31.23,51-115.56V192.89h47.9V296q-1.07,29.13,28.11,28.11h13.52q26,1,26-26V287.63Z"/>
          </g>
          <g>
            <path class="cls-1" d="M658.72,159.58H636.85q7.29,27.09,8.34,41.64H603.54V222h66.63q-10.41,31.23-23.94,50c-11.11-4.85-19.44-8.34-25-10.41a62.81,62.81,0,0,1-12.51-4.17v22.9a454.46,454.46,0,0,1,86.42,53.1V301.16q-14.6-9.36-27.07-17.69,20.8-23.94,34.35-61.43V201.22H671.21Q669.11,182.5,658.72,159.58Z"/>
            <path class="cls-1" d="M653.51,130.43q17.7,36.45,55.18,58.31V169q-29.16-31.23-41.63-76H638.94q-12.5,46.85-42.69,76v20.82Q636.86,166.88,653.51,130.43Z"/>
            <path class="cls-1" d="M786.77,235.58v-53.1H758.66v52.06q3.12,54.15-53.1,77v19.79q47.88-14.6,67.68-43.73,17.68,29.14,65.6,43.73V311.57Q784.69,287.65,786.77,235.58Z"/>
            <path class="cls-1" d="M705.56,101.29v20.82h51a159.72,159.72,0,0,1-4.17,27.06H713.9V271h26V170h65.59V271h26V171.74l0,1.12q-1.17-23.06-24.8-23.69c-1.06,0-2.14,0-3.26,0l.24,0H782.61q1-5.19,3.12-15.62a114.2,114.2,0,0,1,2.08-11.44h52.06V101.29Z"/>
          </g>
          <rect class="cls-1" x="1150.18" y="102.66" width="195.35" height="23.9"/>
          <path class="cls-1" d="M1245.62,198.29h121.73V173.43h-239v24.86h75.69c-11.08,29.8-32.09,68.19-57,95.21v1.81q1.43,22.26,24.3,23.11c46.5-.17,101.23-2.93,154.23-8.3a105,105,0,0,0,4.16,13.51,17.45,17.45,0,0,1,1,5.2H1363q-12.46-44.67-34.29-80h-29.1a376.8,376.8,0,0,1,17.67,38.44c-35.33,4.16-84,6.24-135.93,6.24C1206.93,270.64,1230.37,232.24,1245.62,198.29Z"/>
        </g>
      </g>
    </g>
  </g>
</svg>
