<svg xmlns="http://www.w3.org/2000/svg" xmlns:xlink="http://www.w3.org/1999/xlink" viewBox="0 0 32 16"><defs><style>.cls-1,.cls-2{fill:none;}.cls-1{clip-rule:evenodd;}.cls-3{clip-path:url(#clip-path);}.cls-4{clip-path:url(#clip-path-2);}.cls-5{isolation:isolate;}.cls-6{clip-path:url(#clip-path-3);}.cls-7{clip-path:url(#clip-path-4);}.cls-8{fill:#fff;}.cls-9{clip-path:url(#clip-path-5);}</style><clipPath id="clip-path"><path class="cls-1" d="M26.69,5l1.5-1.54L29.7,5ZM18.91,5l1.5-1.54L21.91,5Zm9.28-5h0l3.57,3.64L30.61,4.82,28.19,2.35,25.78,4.82,24.63,3.64ZM20.41,0h0L24,3.64,22.82,4.82,20.41,2.35,18,4.82,16.85,3.64ZM11.9,9.75q-.13,3.33,3.26,4.85v1.27a6.84,6.84,0,0,1-4.1-2.79,7.56,7.56,0,0,1-4.23,2.79V14.6q3.51-1.45,3.32-4.91V6.36H11.9ZM3.58,3A8.35,8.35,0,0,1,0,6.83V5.5A10.29,10.29,0,0,0,2.67.65H4.42A11.66,11.66,0,0,0,7,5.5V6.76A8.5,8.5,0,0,1,3.58,3ZM3.9,4.9a8.7,8.7,0,0,1,.78,2.66h2V8.89a12.45,12.45,0,0,1-2.14,3.92l1.69,1.13V16a28.89,28.89,0,0,0-5.4-3.39V11.15a3.33,3.33,0,0,0,.78.26c.35.14.87.36,1.56.67a12.36,12.36,0,0,0,1.5-3.19H.46V7.56h2.6A16.65,16.65,0,0,0,2.54,4.9Zm26.86,8.18H32v.66c0,1.15-.54,1.71-1.63,1.66h-.84c-1.22,0-1.8-.55-1.76-1.79V7h-3V8.42q.25,5.39-3.19,7.38V14.21c1-1,1.39-2.91,1.3-5.65V5.63h5c1.12,0,1.7.47,1.76,1.52v6.39c-.05.44.13.64.52.6s.63-.16.58-.6ZM25.89,12a29.2,29.2,0,0,0-.78-3.59h1.3a20.66,20.66,0,0,1,1,3.59ZM17.17,7.23V5.9h5V7.23h-1.5v5q.72-.14,1.5-.33v1.33a14.52,14.52,0,0,1-5.27.93v-1.6c.26,0,.61,0,1-.06h.78V7.23ZM13,4.24h.2A1.42,1.42,0,0,1,14.7,5.75V12H13.07V5.57H9V12H7.35V4.24H9.76A11.22,11.22,0,0,0,10,2.51H6.83V1.18h8.39V2.51H12a5.53,5.53,0,0,0-.13.73c-.09.44-.16.78-.2,1H13Z"/></clipPath><clipPath id="clip-path-2"><rect class="cls-2" y="-0.12" width="32.07" height="17.13"/></clipPath><clipPath id="clip-path-3"><rect class="cls-2" x="-5.01" y="-7.17" width="42.09" height="28.21"/></clipPath><clipPath id="clip-path-4"><rect class="cls-2" y="-0.12" width="32.07" height="16.12"/></clipPath><clipPath id="clip-path-5"><rect class="cls-2" y="-6.83" width="32.07" height="27.2"/></clipPath></defs><title>领筑logo</title><g id="系统图标"><g class="cls-3"><g class="cls-4"><g class="cls-5"><g class="cls-6"><g class="cls-7"><rect class="cls-8" x="-5.01" y="-5.04" width="42.02" height="26.07"/></g><g class="cls-9"><g class="cls-7"><rect class="cls-8" x="-5.01" y="-11.87" width="42.09" height="37.27"/></g></g></g></g></g></g></g></svg>