<svg xmlns="http://www.w3.org/2000/svg" viewBox="0 0 495.02 360">
  <defs>
    <style>
      .cls-1 {
        fill: #fff;
      }
    </style>
  </defs>
  <title>logo-白</title>
  <g id="图层_2" data-name="图层 2">
    <g id="图层_1-2" data-name="图层 1">
      <path id="logo-白" class="cls-1" d="M131.81,89.07l-29.58-34A264,264,0,0,1,245.93.11L247.51,0l1.58.11a263.92,263.92,0,0,1,143.7,55l-29.57,34A219.09,219.09,0,0,0,247.51,45.12,219.06,219.06,0,0,0,131.81,89.07ZM495,247.49h-.5A262.68,262.68,0,0,0,422.77,82.22q-3.24-3.41-6.58-6.67l-34.08,29.62c2.72,2.6,5.39,5.26,8,8a217.79,217.79,0,0,1,59.32,134.32H405L348.65,310.1l34,29.53,42.44-47.13h70ZM90,260.11V247.49H45.61a217.79,217.79,0,0,1,59.32-134.32q3.9-4.11,8-8L78.83,75.55c-2.22,2.18-4.42,4.4-6.57,6.67A262.68,262.68,0,0,0,.51,247.49H0v45H31.1L90,273.36ZM143.88,315l-26.45-29.37L75.35,306.15h0L123.84,360H367.75l-39.37-45ZM247.51,136.34a84.54,84.54,0,0,1,51,23.56l1.36,1.46,27.86-27.86-1.37-1.44A124,124,0,0,0,248.93,97l-1.42-.1-1.41.1a123.67,123.67,0,0,0-77.9,35.52,85,85,0,0,0-22.5,82.92c0,.05,0,.11.05.16.14.54.3,1.07.45,1.61l0,.11a85.45,85.45,0,0,0,2.9,8.24l0,.09c.22.5.43,1,.65,1.52l.07.15c.22.51.45,1,.68,1.52l0,0a84.69,84.69,0,0,0,4,7.61,2,2,0,0,1,.11.2l.81,1.33.13.2.85,1.35,0,0c1.23,1.88,2.53,3.72,3.9,5.49a2,2,0,0,0,.17.23l.9,1.14.25.31.9,1.1.24.28,1,1.12.07.07c1.06,1.22,2.17,2.41,3.3,3.56l.24.25,1,.94.39.38.92.87.44.41c.3.29.61.57.92.85l.43.38,1,.85.17.15q1.11.94,2.25,1.86l.31.25.94.72.56.43.91.68.62.45.89.64.67.46.88.6.7.46.89.58.8.5,1.52.93.81.47.84.49.83.46.85.46.86.45.83.43.92.46.8.39,1.11.51.8.37,1.53.67.73.3,1.06.44.79.31,1,.39.8.29,1.06.38.78.26,1.18.39.68.21c.61.19,1.22.38,1.84.55l.41.11,1.49.41.71.17,1.21.3.77.18,1.19.25.77.16c.41.09.83.16,1.24.24l.72.13,1.51.25.46.08c.65.1,1.31.19,2,.27l.56.07,1.45.17.73.07,1.29.11.79.06,1.28.08.77,0c.46,0,.92,0,1.39.06l.66,0,2,0h40.57a85.43,85.43,0,0,0,82.87-64.69V174.37h-130l26.09,39.37h62.29A45.68,45.68,0,0,1,269,239.06H227.82q-1,0-2.1-.06l-.58,0c-.56,0-1.11-.07-1.67-.12l-.44,0c-.68-.08-1.35-.16-2-.26l-.51-.08-1.55-.28-.59-.12c-.64-.13-1.28-.28-1.92-.44l-.3-.08-1.62-.46-.64-.2c-.47-.15-.92-.31-1.38-.47l-.53-.19c-.58-.21-1.15-.44-1.72-.68l-.67-.29c-.38-.16-.76-.33-1.13-.51l-.72-.34c-.49-.24-1-.49-1.46-.75l-.78-.43c-.33-.18-.65-.37-1-.56l-.81-.49-.84-.53-1.26-.86-.82-.58-.86-.66-.61-.47c-.29-.24-.58-.47-.87-.72a3.88,3.88,0,0,1-.31-.26c-.6-.51-1.18-1-1.76-1.58l-.4-.39-.9-.89-.28-.3c-.63-.66-1.23-1.32-1.82-2l-.07-.09c-.3-.35-.59-.71-.88-1.07l-.22-.28c-.89-1.13-1.72-2.31-2.5-3.52a1.64,1.64,0,0,0-.14-.22c-.81-1.29-1.57-2.63-2.26-4a45.45,45.45,0,0,1-4.8-20.39,47,47,0,0,1,13.76-32.87A84.3,84.3,0,0,1,247.51,136.34Z"/>
    </g>
  </g>
</svg>
